<svg width="128" height="48" xmlns="http://www.w3.org/2000/svg">
 <g>
  <title>background</title>
  <rect x="-1" y="-1" width="130" height="50" id="canvas_background" fill="none"/>
 </g>

 <g>
  <title>Layer 1</title>
  <polygon points="44.274845749139786,14.128257751464844 24.371323257684708,4.05710506439209 4.467751175165176,14.128257751464844 4.418263107538223,14.15318775177002 4.418263107538223,34.34535598754883 4.42459312081337,34.34906005859375 24.371323257684708,44.44144058227539 44.316952377557755,34.34811782836914 44.32323518395424,34.34535598754883 44.32323518395424,14.15318775177002 " fill="#22c96d" id="svg_36" stroke="null"/>
  <polygon points="44.27470842003822,14.180474281311035 24.371185928583145,4.1093220710754395 24.371185928583145,24.25258445739746 24.371185928583145,24.30795669555664 24.371185928583145,44.493656158447266 44.31681504845619,34.400333404541016 44.323097854852676,34.3975715637207 44.323097854852676,14.205404281616211 " fill="#30d37c" id="svg_37" stroke="null"/>
  <polygon points="24.37151589989662,24.14815330505371 24.37151589989662,24.20352554321289 4.424785286188126,34.29684829711914 4.418455272912979,34.29314422607422 4.418455272912979,14.100974082946777 4.4679438173770905,14.076044082641602 " fill="#22c96d" id="svg_38" stroke="null"/>
  <polygon points="44.32315507531166,14.205404281616211 44.32315507531166,34.3975715637207 44.316872268915176,34.400333404541016 24.371245056390762,24.30795669555664 24.371245056390762,24.25258445739746 44.27476564049721,14.180474281311035 " fill="#FFA638" id="svg_39" stroke="null"/>
  <polygon points="44.32315507531166,14.205404281616211 44.32315507531166,34.3975715637207 44.316872268915176,34.400333404541016 24.371245056390762,24.30795669555664 24.371245056390762,24.25258445739746 44.27476564049721,14.180474281311035 " fill="#30d37c" id="svg_40" stroke="null"/>
  <text xml:space="preserve" text-anchor="start" font-family="Helvetica, Arial, sans-serif" font-size="26" id="svg_2" y="35.61292" x="49.33132" fill-opacity="null" stroke-opacity="null" stroke-width="0" stroke="null" fill="#000000">Brand</text>
 </g>
</svg>